<mxfile host="app.diagrams.net" modified="2021-05-09T10:30:30.321Z" agent="5.0 (Windows NT 6.3; Win64; x64) AppleWebKit/537.36 (KHTML, like Gecko) Chrome/90.0.4430.93 Safari/537.36" etag="qKky44SJkrgdfX6cXgrG" version="14.6.11" type="github">
  <diagram name="Page-1" id="822b0af5-4adb-64df-f703-e8dfc1f81529">
    <mxGraphModel dx="2484" dy="736" grid="1" gridSize="10" guides="1" tooltips="1" connect="1" arrows="1" fold="1" page="1" pageScale="1" pageWidth="1100" pageHeight="850" background="#ffffff" math="0" shadow="0">
      <root>
        <mxCell id="0" />
        <mxCell id="1" parent="0" />
        <mxCell id="jQDINDvvrDZbcHtMQMTa-106" value="" style="edgeStyle=elbowEdgeStyle;elbow=vertical;endArrow=classic;html=1;fontSize=100;entryX=0.586;entryY=0.427;entryDx=0;entryDy=0;entryPerimeter=0;" edge="1" parent="1">
          <mxGeometry width="50" height="50" relative="1" as="geometry">
            <mxPoint x="1004.8199999999999" y="493.73" as="sourcePoint" />
            <mxPoint x="770" y="364" as="targetPoint" />
            <Array as="points">
              <mxPoint x="870" y="418" />
            </Array>
          </mxGeometry>
        </mxCell>
        <mxCell id="jQDINDvvrDZbcHtMQMTa-87" value="" style="rounded=1;whiteSpace=wrap;html=1;fontSize=19;align=center;" vertex="1" parent="1">
          <mxGeometry x="792.5" y="260" width="190" height="120" as="geometry" />
        </mxCell>
        <mxCell id="jQDINDvvrDZbcHtMQMTa-63" style="edgeStyle=orthogonalEdgeStyle;rounded=0;orthogonalLoop=1;jettySize=auto;html=1;exitX=1;exitY=0.5;exitDx=0;exitDy=0;entryX=0.032;entryY=0.506;entryDx=0;entryDy=0;entryPerimeter=0;fontSize=19;" edge="1" parent="1" source="jQDINDvvrDZbcHtMQMTa-59" target="jQDINDvvrDZbcHtMQMTa-62">
          <mxGeometry relative="1" as="geometry" />
        </mxCell>
        <mxCell id="jQDINDvvrDZbcHtMQMTa-79" style="edgeStyle=orthogonalEdgeStyle;rounded=0;orthogonalLoop=1;jettySize=auto;html=1;entryX=0.5;entryY=0;entryDx=0;entryDy=0;fontSize=19;" edge="1" parent="1" source="jQDINDvvrDZbcHtMQMTa-59" target="jQDINDvvrDZbcHtMQMTa-73">
          <mxGeometry relative="1" as="geometry" />
        </mxCell>
        <mxCell id="jQDINDvvrDZbcHtMQMTa-59" value="" style="rhombus;whiteSpace=wrap;html=1;fontSize=19;" vertex="1" parent="1">
          <mxGeometry x="304" y="1361" width="230" height="219" as="geometry" />
        </mxCell>
        <mxCell id="jQDINDvvrDZbcHtMQMTa-40" style="edgeStyle=orthogonalEdgeStyle;rounded=0;orthogonalLoop=1;jettySize=auto;html=1;exitX=0.5;exitY=1;exitDx=0;exitDy=0;entryX=0.5;entryY=0;entryDx=0;entryDy=0;fontSize=19;" edge="1" parent="1">
          <mxGeometry relative="1" as="geometry">
            <mxPoint x="419" y="1257" as="sourcePoint" />
            <mxPoint x="419" y="1362" as="targetPoint" />
          </mxGeometry>
        </mxCell>
        <mxCell id="jQDINDvvrDZbcHtMQMTa-58" style="edgeStyle=orthogonalEdgeStyle;rounded=0;orthogonalLoop=1;jettySize=auto;html=1;exitX=1;exitY=0.5;exitDx=0;exitDy=0;entryX=0;entryY=0.5;entryDx=0;entryDy=0;fontSize=19;" edge="1" parent="1" source="jQDINDvvrDZbcHtMQMTa-32" target="jQDINDvvrDZbcHtMQMTa-43">
          <mxGeometry relative="1" as="geometry" />
        </mxCell>
        <mxCell id="jQDINDvvrDZbcHtMQMTa-32" value="" style="rhombus;whiteSpace=wrap;html=1;fontSize=19;" vertex="1" parent="1">
          <mxGeometry x="305" y="1027" width="230" height="230" as="geometry" />
        </mxCell>
        <mxCell id="jQDINDvvrDZbcHtMQMTa-16" value="" style="rounded=1;whiteSpace=wrap;html=1;" vertex="1" parent="1">
          <mxGeometry x="230" y="490" width="830" height="110" as="geometry" />
        </mxCell>
        <mxCell id="jQDINDvvrDZbcHtMQMTa-94" value="" style="edgeStyle=orthogonalEdgeStyle;rounded=0;orthogonalLoop=1;jettySize=auto;html=1;fontSize=100;entryX=0.502;entryY=0.533;entryDx=0;entryDy=0;entryPerimeter=0;" edge="1" parent="1" source="jQDINDvvrDZbcHtMQMTa-7" target="jQDINDvvrDZbcHtMQMTa-93">
          <mxGeometry relative="1" as="geometry" />
        </mxCell>
        <mxCell id="jQDINDvvrDZbcHtMQMTa-7" value="" style="rounded=1;whiteSpace=wrap;html=1;" vertex="1" parent="1">
          <mxGeometry x="355" y="123" width="495" height="100" as="geometry" />
        </mxCell>
        <mxCell id="jQDINDvvrDZbcHtMQMTa-1" value="" style="pointerEvents=1;shadow=0;dashed=0;html=1;strokeColor=none;labelPosition=center;verticalLabelPosition=bottom;verticalAlign=top;align=center;fillColor=#515151;shape=mxgraph.mscae.system_center.software_update_point" vertex="1" parent="1">
          <mxGeometry x="390" y="135" width="50" height="43" as="geometry" />
        </mxCell>
        <mxCell id="jQDINDvvrDZbcHtMQMTa-2" value="" style="pointerEvents=1;shadow=0;dashed=0;html=1;strokeColor=none;labelPosition=center;verticalLabelPosition=bottom;verticalAlign=top;align=center;fillColor=#515151;shape=mxgraph.mscae.system_center.software_update_point" vertex="1" parent="1">
          <mxGeometry x="580" y="135" width="50" height="43" as="geometry" />
        </mxCell>
        <mxCell id="jQDINDvvrDZbcHtMQMTa-3" value="" style="pointerEvents=1;shadow=0;dashed=0;html=1;strokeColor=none;labelPosition=center;verticalLabelPosition=bottom;verticalAlign=top;align=center;fillColor=#515151;shape=mxgraph.mscae.system_center.software_update_point" vertex="1" parent="1">
          <mxGeometry x="480" y="135" width="50" height="43" as="geometry" />
        </mxCell>
        <mxCell id="jQDINDvvrDZbcHtMQMTa-4" value="" style="pointerEvents=1;shadow=0;dashed=0;html=1;strokeColor=none;labelPosition=center;verticalLabelPosition=bottom;verticalAlign=top;align=center;fillColor=#515151;shape=mxgraph.mscae.system_center.software_update_point" vertex="1" parent="1">
          <mxGeometry x="670" y="135" width="50" height="43" as="geometry" />
        </mxCell>
        <mxCell id="jQDINDvvrDZbcHtMQMTa-5" value="" style="pointerEvents=1;shadow=0;dashed=0;html=1;strokeColor=none;labelPosition=center;verticalLabelPosition=bottom;verticalAlign=top;align=center;fillColor=#515151;shape=mxgraph.mscae.system_center.software_update_point" vertex="1" parent="1">
          <mxGeometry x="770" y="135" width="50" height="43" as="geometry" />
        </mxCell>
        <mxCell id="jQDINDvvrDZbcHtMQMTa-6" style="edgeStyle=orthogonalEdgeStyle;rounded=0;orthogonalLoop=1;jettySize=auto;html=1;exitX=0.6;exitY=0.4;exitDx=0;exitDy=0;exitPerimeter=0;entryX=0.269;entryY=0.592;entryDx=0;entryDy=0;entryPerimeter=0;" edge="1" parent="1" source="jQDINDvvrDZbcHtMQMTa-4" target="jQDINDvvrDZbcHtMQMTa-4">
          <mxGeometry relative="1" as="geometry" />
        </mxCell>
        <mxCell id="jQDINDvvrDZbcHtMQMTa-8" value="&lt;font style=&quot;font-size: 15px&quot;&gt;Software Update Points&lt;/font&gt;" style="text;html=1;strokeColor=none;fillColor=none;align=center;verticalAlign=middle;whiteSpace=wrap;rounded=0;" vertex="1" parent="1">
          <mxGeometry x="483" y="197" width="210" height="20" as="geometry" />
        </mxCell>
        <mxCell id="jQDINDvvrDZbcHtMQMTa-9" value="Client 2" style="outlineConnect=0;fontColor=#232F3E;gradientColor=none;strokeColor=#232F3E;fillColor=#ffffff;dashed=0;verticalLabelPosition=bottom;verticalAlign=top;align=center;html=1;fontSize=12;fontStyle=0;aspect=fixed;shape=mxgraph.aws4.resourceIcon;resIcon=mxgraph.aws4.client;" vertex="1" parent="1">
          <mxGeometry x="340" y="490" width="60" height="60" as="geometry" />
        </mxCell>
        <mxCell id="jQDINDvvrDZbcHtMQMTa-10" value="Client 1" style="outlineConnect=0;fontColor=#232F3E;gradientColor=none;strokeColor=#232F3E;fillColor=#ffffff;dashed=0;verticalLabelPosition=bottom;verticalAlign=top;align=center;html=1;fontSize=12;fontStyle=0;aspect=fixed;shape=mxgraph.aws4.resourceIcon;resIcon=mxgraph.aws4.client;" vertex="1" parent="1">
          <mxGeometry x="270" y="490" width="60" height="60" as="geometry" />
        </mxCell>
        <mxCell id="jQDINDvvrDZbcHtMQMTa-11" value="Client 25" style="outlineConnect=0;fontColor=#232F3E;gradientColor=none;strokeColor=#232F3E;fillColor=#ffffff;dashed=0;verticalLabelPosition=bottom;verticalAlign=top;align=center;html=1;fontSize=12;fontStyle=0;aspect=fixed;shape=mxgraph.aws4.resourceIcon;resIcon=mxgraph.aws4.client;" vertex="1" parent="1">
          <mxGeometry x="980" y="490" width="60" height="60" as="geometry" />
        </mxCell>
        <mxCell id="jQDINDvvrDZbcHtMQMTa-12" value="Client 24" style="outlineConnect=0;fontColor=#232F3E;gradientColor=none;strokeColor=#232F3E;fillColor=#ffffff;dashed=0;verticalLabelPosition=bottom;verticalAlign=top;align=center;html=1;fontSize=12;fontStyle=0;aspect=fixed;shape=mxgraph.aws4.resourceIcon;resIcon=mxgraph.aws4.client;" vertex="1" parent="1">
          <mxGeometry x="910" y="490" width="60" height="60" as="geometry" />
        </mxCell>
        <mxCell id="jQDINDvvrDZbcHtMQMTa-13" value="Client 23" style="outlineConnect=0;fontColor=#232F3E;gradientColor=none;strokeColor=#232F3E;fillColor=#ffffff;dashed=0;verticalLabelPosition=bottom;verticalAlign=top;align=center;html=1;fontSize=12;fontStyle=0;aspect=fixed;shape=mxgraph.aws4.resourceIcon;resIcon=mxgraph.aws4.client;" vertex="1" parent="1">
          <mxGeometry x="840" y="490" width="60" height="60" as="geometry" />
        </mxCell>
        <mxCell id="jQDINDvvrDZbcHtMQMTa-14" value="Client 4" style="outlineConnect=0;fontColor=#232F3E;gradientColor=none;strokeColor=#232F3E;fillColor=#ffffff;dashed=0;verticalLabelPosition=bottom;verticalAlign=top;align=center;html=1;fontSize=12;fontStyle=0;aspect=fixed;shape=mxgraph.aws4.resourceIcon;resIcon=mxgraph.aws4.client;" vertex="1" parent="1">
          <mxGeometry x="500" y="490" width="60" height="60" as="geometry" />
        </mxCell>
        <mxCell id="jQDINDvvrDZbcHtMQMTa-15" value="Client 3" style="outlineConnect=0;fontColor=#232F3E;gradientColor=none;strokeColor=#232F3E;fillColor=#ffffff;dashed=0;verticalLabelPosition=bottom;verticalAlign=top;align=center;html=1;fontSize=12;fontStyle=0;aspect=fixed;shape=mxgraph.aws4.resourceIcon;resIcon=mxgraph.aws4.client;" vertex="1" parent="1">
          <mxGeometry x="420" y="490" width="60" height="60" as="geometry" />
        </mxCell>
        <mxCell id="jQDINDvvrDZbcHtMQMTa-23" value="" style="endArrow=none;dashed=1;html=1;" edge="1" parent="1">
          <mxGeometry width="50" height="50" relative="1" as="geometry">
            <mxPoint x="570" y="530" as="sourcePoint" />
            <mxPoint x="830" y="530" as="targetPoint" />
          </mxGeometry>
        </mxCell>
        <mxCell id="jQDINDvvrDZbcHtMQMTa-34" value="" style="edgeStyle=orthogonalEdgeStyle;rounded=0;orthogonalLoop=1;jettySize=auto;html=1;fontSize=19;" edge="1" parent="1" source="jQDINDvvrDZbcHtMQMTa-30">
          <mxGeometry relative="1" as="geometry">
            <mxPoint x="419" y="1027" as="targetPoint" />
          </mxGeometry>
        </mxCell>
        <mxCell id="jQDINDvvrDZbcHtMQMTa-30" value="&lt;div style=&quot;font-size: 17px&quot;&gt;&lt;ul&gt;&lt;li&gt;Internet Information Services (IIS) -&amp;nbsp; to run the software update point.&lt;/li&gt;&lt;li&gt;Windows Server Update Services (WSUS) - for software updates synchronization and for the software updates applicability scan on clients&lt;/li&gt;&lt;li&gt;The Windows Update Agent (WUA) client - to connect to the WSUS server&lt;/li&gt;&lt;/ul&gt;&lt;/div&gt;" style="rounded=1;whiteSpace=wrap;html=1;align=left;" vertex="1" parent="1">
          <mxGeometry x="145" y="740" width="550" height="230" as="geometry" />
        </mxCell>
        <mxCell id="jQDINDvvrDZbcHtMQMTa-31" value="Connect to software update points" style="text;html=1;strokeColor=none;fillColor=none;align=center;verticalAlign=middle;whiteSpace=wrap;rounded=0;fontSize=19;" vertex="1" parent="1">
          <mxGeometry x="325" y="1130" width="190" height="17" as="geometry" />
        </mxCell>
        <mxCell id="jQDINDvvrDZbcHtMQMTa-33" value="Pre-requisites:" style="text;html=1;strokeColor=none;fillColor=none;align=center;verticalAlign=middle;whiteSpace=wrap;rounded=0;fontSize=19;" vertex="1" parent="1">
          <mxGeometry x="169" y="755" width="186" height="20" as="geometry" />
        </mxCell>
        <mxCell id="jQDINDvvrDZbcHtMQMTa-37" value="Scan for latest software updates" style="text;html=1;strokeColor=none;fillColor=none;align=center;verticalAlign=middle;whiteSpace=wrap;rounded=0;fontSize=19;" vertex="1" parent="1">
          <mxGeometry x="320" y="1462" width="200" height="20" as="geometry" />
        </mxCell>
        <mxCell id="jQDINDvvrDZbcHtMQMTa-42" value="Connected" style="text;html=1;strokeColor=none;fillColor=none;align=center;verticalAlign=middle;whiteSpace=wrap;rounded=0;fontSize=19;" vertex="1" parent="1">
          <mxGeometry x="449" y="1307" width="40" height="20" as="geometry" />
        </mxCell>
        <mxCell id="jQDINDvvrDZbcHtMQMTa-43" value="" style="rounded=1;whiteSpace=wrap;html=1;fontSize=19;" vertex="1" parent="1">
          <mxGeometry x="700" y="1112" width="270" height="60" as="geometry" />
        </mxCell>
        <mxCell id="jQDINDvvrDZbcHtMQMTa-44" value="Connect to different software update points" style="text;html=1;strokeColor=none;fillColor=none;align=center;verticalAlign=middle;whiteSpace=wrap;rounded=0;fontSize=19;" vertex="1" parent="1">
          <mxGeometry x="710" y="1134" width="250" height="20" as="geometry" />
        </mxCell>
        <mxCell id="jQDINDvvrDZbcHtMQMTa-55" value="&lt;span style=&quot;color: rgb(0, 0, 0); font-family: helvetica; font-size: 19px; font-style: normal; font-weight: 400; letter-spacing: normal; text-indent: 0px; text-transform: none; word-spacing: 0px; background-color: rgb(248, 249, 250); display: inline; float: none;&quot;&gt;Fails/&lt;/span&gt;&lt;br style=&quot;color: rgb(0, 0, 0); font-family: helvetica; font-size: 19px; font-style: normal; font-weight: 400; letter-spacing: normal; text-indent: 0px; text-transform: none; word-spacing: 0px; background-color: rgb(248, 249, 250);&quot;&gt;&lt;span style=&quot;color: rgb(0, 0, 0); font-family: helvetica; font-size: 19px; font-style: normal; font-weight: 400; letter-spacing: normal; text-indent: 0px; text-transform: none; word-spacing: 0px; background-color: rgb(248, 249, 250); display: inline; float: none;&quot;&gt;Unavailable&lt;/span&gt;" style="text;whiteSpace=wrap;html=1;fontSize=19;align=center;" vertex="1" parent="1">
          <mxGeometry x="550" y="1115" width="120" height="60" as="geometry" />
        </mxCell>
        <mxCell id="jQDINDvvrDZbcHtMQMTa-60" value="" style="rounded=1;whiteSpace=wrap;html=1;fontSize=19;align=center;" vertex="1" parent="1">
          <mxGeometry x="630" y="1349" width="310" height="230" as="geometry" />
        </mxCell>
        <mxCell id="jQDINDvvrDZbcHtMQMTa-61" value="Fails" style="text;html=1;strokeColor=none;fillColor=none;align=center;verticalAlign=middle;whiteSpace=wrap;rounded=0;fontSize=19;" vertex="1" parent="1">
          <mxGeometry x="550" y="1449" width="40" height="20" as="geometry" />
        </mxCell>
        <mxCell id="jQDINDvvrDZbcHtMQMTa-62" value="&lt;div&gt;&lt;ul&gt;&lt;li&gt;Retries at its scheduled time&lt;/li&gt;&lt;li&gt;Can be manually run from the control panel on the client&lt;/li&gt;&lt;li&gt;Can be manually run from the Configuration Manager console via a client notification action&lt;/li&gt;&lt;li&gt;Can be run from a Configuration Manager SDK method&lt;/li&gt;&lt;/ul&gt;&lt;/div&gt;" style="text;html=1;strokeColor=none;fillColor=none;align=left;verticalAlign=middle;whiteSpace=wrap;rounded=0;fontSize=19;" vertex="1" parent="1">
          <mxGeometry x="620" y="1359" width="310" height="220" as="geometry" />
        </mxCell>
        <mxCell id="jQDINDvvrDZbcHtMQMTa-72" value="" style="edgeStyle=orthogonalEdgeStyle;rounded=0;orthogonalLoop=1;jettySize=auto;html=1;fontSize=19;" edge="1" parent="1" source="jQDINDvvrDZbcHtMQMTa-65" target="jQDINDvvrDZbcHtMQMTa-71">
          <mxGeometry relative="1" as="geometry" />
        </mxCell>
        <mxCell id="jQDINDvvrDZbcHtMQMTa-65" value="Automatic/Manual download of software update deployment packages" style="rounded=1;whiteSpace=wrap;html=1;fontSize=19;align=center;" vertex="1" parent="1">
          <mxGeometry x="260" y="1880" width="320" height="71" as="geometry" />
        </mxCell>
        <mxCell id="jQDINDvvrDZbcHtMQMTa-82" value="" style="edgeStyle=orthogonalEdgeStyle;rounded=0;orthogonalLoop=1;jettySize=auto;html=1;fontSize=19;" edge="1" parent="1" source="jQDINDvvrDZbcHtMQMTa-71" target="jQDINDvvrDZbcHtMQMTa-81">
          <mxGeometry relative="1" as="geometry" />
        </mxCell>
        <mxCell id="jQDINDvvrDZbcHtMQMTa-71" value="&lt;p style=&quot;line-height: 0%&quot;&gt;&amp;nbsp; &amp;nbsp; Deploy software updates&lt;br&gt;&lt;/p&gt;&lt;ul&gt;&lt;li&gt;Manual deployment&lt;/li&gt;&lt;li&gt;Automatic deployment&lt;/li&gt;&lt;li&gt;Phased deployment&lt;/li&gt;&lt;/ul&gt;&lt;p&gt;&lt;/p&gt;" style="rounded=1;whiteSpace=wrap;html=1;fontSize=19;align=left;" vertex="1" parent="1">
          <mxGeometry x="295.5" y="2031" width="251" height="130" as="geometry" />
        </mxCell>
        <mxCell id="jQDINDvvrDZbcHtMQMTa-80" style="edgeStyle=orthogonalEdgeStyle;rounded=0;orthogonalLoop=1;jettySize=auto;html=1;entryX=0.5;entryY=0;entryDx=0;entryDy=0;fontSize=19;" edge="1" parent="1" source="jQDINDvvrDZbcHtMQMTa-73" target="jQDINDvvrDZbcHtMQMTa-65">
          <mxGeometry relative="1" as="geometry" />
        </mxCell>
        <mxCell id="jQDINDvvrDZbcHtMQMTa-73" value="Scan to verify that the software update is still required" style="rounded=1;whiteSpace=wrap;html=1;fontSize=19;align=center;" vertex="1" parent="1">
          <mxGeometry x="260" y="1730" width="320" height="60" as="geometry" />
        </mxCell>
        <mxCell id="jQDINDvvrDZbcHtMQMTa-84" value="" style="edgeStyle=orthogonalEdgeStyle;rounded=0;orthogonalLoop=1;jettySize=auto;html=1;fontSize=19;" edge="1" parent="1" source="jQDINDvvrDZbcHtMQMTa-81" target="jQDINDvvrDZbcHtMQMTa-83">
          <mxGeometry relative="1" as="geometry" />
        </mxCell>
        <mxCell id="jQDINDvvrDZbcHtMQMTa-81" value="Software Updates Client Agent starts a scan to verify that the software updates are no longer required" style="rounded=1;whiteSpace=wrap;html=1;fontSize=19;align=center;" vertex="1" parent="1">
          <mxGeometry x="245" y="2260" width="350" height="100" as="geometry" />
        </mxCell>
        <mxCell id="jQDINDvvrDZbcHtMQMTa-83" value="If system restart for the software update installation to finish, the Software Updates Client Agent starts a scan after the restart to verify that the software update is no longer required and creates a state message that states that the software update is installed." style="rounded=1;whiteSpace=wrap;html=1;fontSize=19;align=center;" vertex="1" parent="1">
          <mxGeometry x="120" y="2450" width="600" height="150" as="geometry" />
        </mxCell>
        <mxCell id="jQDINDvvrDZbcHtMQMTa-85" value="" style="outlineConnect=0;dashed=0;verticalLabelPosition=bottom;verticalAlign=top;align=center;html=1;shape=mxgraph.aws3.vpn_gateway;fillColor=#F58534;gradientColor=none;fontSize=19;" vertex="1" parent="1">
          <mxGeometry x="893.5" y="270" width="69" height="72" as="geometry" />
        </mxCell>
        <mxCell id="jQDINDvvrDZbcHtMQMTa-86" value="" style="image;html=1;image=img/lib/clip_art/networking/Firewall_02_128x128.png;fontSize=19;align=center;" vertex="1" parent="1">
          <mxGeometry x="812.5" y="266" width="80" height="80" as="geometry" />
        </mxCell>
        <mxCell id="jQDINDvvrDZbcHtMQMTa-90" value="VPN Firewall" style="text;html=1;strokeColor=none;fillColor=none;align=center;verticalAlign=middle;whiteSpace=wrap;rounded=0;fontSize=19;" vertex="1" parent="1">
          <mxGeometry x="817.5" y="350" width="135" height="20" as="geometry" />
        </mxCell>
        <mxCell id="jQDINDvvrDZbcHtMQMTa-93" value="" style="line;strokeWidth=6;html=1;fontSize=100;align=center;fontStyle=0;labelBorderColor=#000000;" vertex="1" parent="1">
          <mxGeometry x="412.5" y="356" width="380" height="10" as="geometry" />
        </mxCell>
        <mxCell id="jQDINDvvrDZbcHtMQMTa-98" value="" style="edgeStyle=elbowEdgeStyle;elbow=vertical;endArrow=classic;html=1;fontSize=100;entryX=0.046;entryY=1.4;entryDx=0;entryDy=0;entryPerimeter=0;" edge="1" parent="1">
          <mxGeometry width="50" height="50" relative="1" as="geometry">
            <mxPoint x="300" y="490" as="sourcePoint" />
            <mxPoint x="429.9799999999998" y="362" as="targetPoint" />
          </mxGeometry>
        </mxCell>
        <mxCell id="jQDINDvvrDZbcHtMQMTa-99" value="" style="edgeStyle=elbowEdgeStyle;elbow=vertical;endArrow=classic;html=1;fontSize=100;entryX=0.131;entryY=0.64;entryDx=0;entryDy=0;entryPerimeter=0;" edge="1" parent="1" target="jQDINDvvrDZbcHtMQMTa-93">
          <mxGeometry width="50" height="50" relative="1" as="geometry">
            <mxPoint x="370" y="489" as="sourcePoint" />
            <mxPoint x="500" y="362" as="targetPoint" />
            <Array as="points">
              <mxPoint x="435" y="442" />
            </Array>
          </mxGeometry>
        </mxCell>
        <mxCell id="jQDINDvvrDZbcHtMQMTa-100" value="" style="edgeStyle=elbowEdgeStyle;elbow=vertical;endArrow=classic;html=1;fontSize=100;entryX=0.216;entryY=0.64;entryDx=0;entryDy=0;entryPerimeter=0;" edge="1" parent="1" target="jQDINDvvrDZbcHtMQMTa-93">
          <mxGeometry width="50" height="50" relative="1" as="geometry">
            <mxPoint x="449" y="490" as="sourcePoint" />
            <mxPoint x="541.28" y="365.9999999999999" as="targetPoint" />
            <Array as="points">
              <mxPoint x="500" y="450" />
            </Array>
          </mxGeometry>
        </mxCell>
        <mxCell id="jQDINDvvrDZbcHtMQMTa-101" value="" style="edgeStyle=elbowEdgeStyle;elbow=vertical;endArrow=classic;html=1;fontSize=100;entryX=0.3;entryY=0.32;entryDx=0;entryDy=0;entryPerimeter=0;" edge="1" parent="1" target="jQDINDvvrDZbcHtMQMTa-93">
          <mxGeometry width="50" height="50" relative="1" as="geometry">
            <mxPoint x="527" y="488.6" as="sourcePoint" />
            <mxPoint x="528" y="370" as="targetPoint" />
            <Array as="points">
              <mxPoint x="525" y="400" />
              <mxPoint x="578" y="448.6" />
            </Array>
          </mxGeometry>
        </mxCell>
        <mxCell id="jQDINDvvrDZbcHtMQMTa-103" value="" style="edgeStyle=elbowEdgeStyle;elbow=vertical;endArrow=classic;html=1;fontSize=100;entryX=0.586;entryY=0.427;entryDx=0;entryDy=0;entryPerimeter=0;" edge="1" parent="1" source="jQDINDvvrDZbcHtMQMTa-13" target="jQDINDvvrDZbcHtMQMTa-93">
          <mxGeometry width="50" height="50" relative="1" as="geometry">
            <mxPoint x="860" y="480" as="sourcePoint" />
            <mxPoint x="809.9799999999998" y="390" as="targetPoint" />
            <Array as="points">
              <mxPoint x="730" y="460" />
            </Array>
          </mxGeometry>
        </mxCell>
        <mxCell id="jQDINDvvrDZbcHtMQMTa-105" value="" style="edgeStyle=elbowEdgeStyle;elbow=vertical;endArrow=classic;html=1;fontSize=100;entryX=0.586;entryY=0.427;entryDx=0;entryDy=0;entryPerimeter=0;" edge="1" parent="1">
          <mxGeometry width="50" height="50" relative="1" as="geometry">
            <mxPoint x="940" y="490" as="sourcePoint" />
            <mxPoint x="705.1800000000001" y="360.27" as="targetPoint" />
            <Array as="points">
              <mxPoint x="810" y="440" />
            </Array>
          </mxGeometry>
        </mxCell>
        <mxCell id="jQDINDvvrDZbcHtMQMTa-107" value="&lt;font style=&quot;font-size: 30px&quot;&gt;&lt;b&gt;Connection&amp;nbsp;Diagram:&lt;/b&gt;&lt;/font&gt;" style="text;html=1;strokeColor=none;fillColor=none;align=center;verticalAlign=middle;whiteSpace=wrap;rounded=0;fontSize=100;" vertex="1" parent="1">
          <mxGeometry x="160" y="50" width="40" height="20" as="geometry" />
        </mxCell>
        <mxCell id="jQDINDvvrDZbcHtMQMTa-108" value="&lt;font style=&quot;font-size: 30px&quot;&gt;&lt;b&gt;Flowchart:&lt;/b&gt;&lt;/font&gt;" style="text;html=1;align=center;verticalAlign=middle;resizable=0;points=[];autosize=1;strokeColor=none;fontSize=100;" vertex="1" parent="1">
          <mxGeometry x="-25" y="605" width="170" height="150" as="geometry" />
        </mxCell>
      </root>
    </mxGraphModel>
  </diagram>
</mxfile>
